<svg width="18" height="19" viewBox="0 0 18 19" fill="none" xmlns="http://www.w3.org/2000/svg">
<path fill-rule="evenodd" clip-rule="evenodd" d="M17.941 16.4241C17.9007 16.4857 17.8433 16.5366 17.7746 16.5718C17.7058 16.607 17.628 16.6254 17.549 16.625H0.449008C0.370163 16.6252 0.292635 16.6067 0.224189 16.5713C0.155743 16.5359 0.0987807 16.4848 0.059008 16.4232C0.0197354 16.3626 -0.000548151 16.2934 0.00033269 16.2231C0.00121353 16.1528 0.0232255 16.0841 0.064008 16.0242L1.61001 13.7587C2.32132 12.7187 2.69873 11.5201 2.70001 10.2971V8.31205C2.70001 5.80676 4.60001 3.68781 7.19901 3.00471V1.58333C7.19901 0.710238 8.00701 0 9.00001 0C9.99201 0 10.8 0.710238 10.8 1.58333V3.00471C13.399 3.68781 15.299 5.80676 15.299 8.31205V10.2971C15.299 11.5158 15.677 12.7146 16.39 13.7596L17.936 16.0251C17.9766 16.085 17.9985 16.1538 17.9994 16.224C18.0002 16.2943 17.9801 16.3634 17.941 16.4241ZM9.00001 19C8.41119 19.0019 7.83354 18.8546 7.33249 18.5748C6.83145 18.295 6.42701 17.8938 6.16501 17.4167H11.834C11.572 17.8936 11.1677 18.2946 10.6669 18.5744C10.166 18.8542 9.58863 19.0016 9.00001 19Z" fill="#1C1C1C"/>
</svg>
