<svg width="120" height="77" viewBox="0 0 120 77" fill="none" xmlns="http://www.w3.org/2000/svg">
<rect width="120" height="77" fill="#E0E6F2"/>
<path d="M49.4209 62H47.9561V58.9531H45.0996V62H43.6348V54.8906H45.0996V57.7715H47.9561V54.8906H49.4209V62ZM58.0449 58.6064C58.0449 59.3063 57.9212 59.9199 57.6738 60.4473C57.4264 60.9746 57.0716 61.3815 56.6094 61.668C56.1504 61.9544 55.623 62.0977 55.0273 62.0977C54.4382 62.0977 53.9124 61.9561 53.4502 61.6729C52.988 61.3896 52.6299 60.986 52.376 60.4619C52.1221 59.9346 51.9935 59.3291 51.9902 58.6455V58.2939C51.9902 57.5941 52.1156 56.9788 52.3662 56.4482C52.6201 55.9144 52.9766 55.5059 53.4355 55.2227C53.8978 54.9362 54.4251 54.793 55.0176 54.793C55.61 54.793 56.1357 54.9362 56.5947 55.2227C57.057 55.5059 57.4134 55.9144 57.6641 56.4482C57.918 56.9788 58.0449 57.5924 58.0449 58.2891V58.6064ZM56.5605 58.2842C56.5605 57.5387 56.4271 56.9723 56.1602 56.585C55.8932 56.1976 55.5124 56.0039 55.0176 56.0039C54.526 56.0039 54.1468 56.196 53.8799 56.5801C53.613 56.9609 53.4779 57.5208 53.4746 58.2598V58.6064C53.4746 59.3324 53.6081 59.8955 53.875 60.2959C54.1419 60.6963 54.526 60.8965 55.0273 60.8965C55.5189 60.8965 55.8965 60.7044 56.1602 60.3203C56.4238 59.9329 56.5573 59.3698 56.5605 58.6309V58.2842ZM62.5234 54.8906L64.3496 60.0469L66.166 54.8906H68.0898V62H66.6201V60.0566L66.7666 56.7021L64.8477 62H63.8418L61.9277 56.707L62.0742 60.0566V62H60.6094V54.8906H62.5234ZM75.1465 58.9189H72.334V60.8232H75.6348V62H70.8691V54.8906H75.625V56.0771H72.334V57.7715H75.1465V58.9189Z" fill="#15294B"/>
<path d="M60.3259 18.9347C60.2387 18.8513 60.1226 18.8047 60.0019 18.8047C59.8812 18.8047 59.7651 18.8513 59.6779 18.9347L48.8907 29.2396C48.8449 29.2834 48.8085 29.3361 48.7836 29.3944C48.7587 29.4527 48.7459 29.5155 48.746 29.5789L48.7443 39.2503C48.7443 39.7476 48.9418 40.2245 49.2934 40.5762C49.6451 40.9278 50.122 41.1253 50.6193 41.1253H56.2501C56.4988 41.1253 56.7372 41.0266 56.913 40.8507C57.0888 40.6749 57.1876 40.4365 57.1876 40.1878V32.2191C57.1876 32.0948 57.237 31.9755 57.3249 31.8876C57.4128 31.7997 57.5321 31.7503 57.6564 31.7503H62.3439C62.4682 31.7503 62.5874 31.7997 62.6753 31.8876C62.7632 31.9755 62.8126 32.0948 62.8126 32.2191V40.1878C62.8126 40.4365 62.9114 40.6749 63.0872 40.8507C63.263 41.0266 63.5015 41.1253 63.7501 41.1253H69.3786C69.8759 41.1253 70.3528 40.9278 70.7045 40.5762C71.0561 40.2245 71.2536 39.7476 71.2536 39.2503V29.5789C71.2537 29.5155 71.2409 29.4527 71.216 29.3944C71.1912 29.3361 71.1547 29.2834 71.1089 29.2396L60.3259 18.9347Z" fill="#15294B"/>
<path d="M73.7644 27.3057L69.3816 23.1127V16.75C69.3816 16.5014 69.2828 16.2629 69.107 16.0871C68.9312 15.9113 68.6927 15.8125 68.4441 15.8125H65.6316C65.3829 15.8125 65.1445 15.9113 64.9687 16.0871C64.7929 16.2629 64.6941 16.5014 64.6941 16.75V18.625L61.3003 15.3801C60.9828 15.059 60.5105 14.875 60.0001 14.875C59.4916 14.875 59.0205 15.059 58.7029 15.3807L46.24 27.3045C45.8755 27.6561 45.8298 28.2344 46.1615 28.6152C46.2448 28.7114 46.3467 28.7896 46.4612 28.845C46.5756 28.9005 46.7002 28.9321 46.8272 28.9379C46.9543 28.9437 47.0812 28.9236 47.2002 28.8788C47.3193 28.834 47.428 28.7655 47.5197 28.6774L59.6779 17.0594C59.7651 16.9759 59.8812 16.9294 60.0019 16.9294C60.1226 16.9294 60.2387 16.9759 60.3259 17.0594L72.4853 28.6774C72.6644 28.8491 72.9043 28.9429 73.1524 28.938C73.4006 28.9332 73.6366 28.8302 73.8089 28.6516C74.1687 28.2789 74.1388 27.6637 73.7644 27.3057Z" fill="#15294B"/>
</svg>
