<svg width="55" height="53" viewBox="0 0 55 53" fill="none" xmlns="http://www.w3.org/2000/svg">
<path d="M2.03613 42.1523L4.36035 47.9531L6.68457 42.1523H7.90039V49.2617H6.96289V46.4932L7.05078 43.5049L4.7168 49.2617H3.99902L1.66992 43.5195L1.7627 46.4932V49.2617H0.825195V42.1523H2.03613ZM16.5244 45.9365C16.5244 46.6331 16.4072 47.2419 16.1729 47.7627C15.9385 48.2803 15.6064 48.6758 15.1768 48.9492C14.7471 49.2227 14.2458 49.3594 13.6729 49.3594C13.113 49.3594 12.6165 49.2227 12.1836 48.9492C11.7507 48.6725 11.4137 48.2803 11.1729 47.7725C10.9352 47.2614 10.8132 46.6706 10.8066 46V45.4873C10.8066 44.8037 10.9255 44.1999 11.1631 43.6758C11.4007 43.1517 11.736 42.7513 12.1689 42.4746C12.6051 42.1947 13.1032 42.0547 13.6631 42.0547C14.2327 42.0547 14.734 42.193 15.167 42.4697C15.6032 42.7432 15.9385 43.1419 16.1729 43.666C16.4072 44.1868 16.5244 44.7939 16.5244 45.4873V45.9365ZM15.5918 45.4775C15.5918 44.6344 15.4225 43.9883 15.084 43.5391C14.7454 43.0866 14.2718 42.8604 13.6631 42.8604C13.0706 42.8604 12.6035 43.0866 12.2617 43.5391C11.9232 43.9883 11.749 44.6133 11.7393 45.4141V45.9365C11.7393 46.7536 11.9102 47.3965 12.252 47.8652C12.597 48.3307 13.0706 48.5635 13.6729 48.5635C14.2783 48.5635 14.7471 48.3438 15.0791 47.9043C15.4111 47.4616 15.582 46.8285 15.5918 46.0049V45.4775ZM19.4307 49.2617V42.1523H21.4375C22.056 42.1523 22.6029 42.2891 23.0781 42.5625C23.5534 42.8359 23.9196 43.2249 24.1768 43.7295C24.4372 44.234 24.569 44.8135 24.5723 45.4678V45.9219C24.5723 46.5924 24.4421 47.18 24.1816 47.6846C23.9245 48.1891 23.555 48.5765 23.0732 48.8467C22.5947 49.1169 22.0365 49.2552 21.3984 49.2617H19.4307ZM20.3682 42.9238V48.4951H21.3545C22.0771 48.4951 22.6387 48.2705 23.0391 47.8213C23.4427 47.3721 23.6445 46.7324 23.6445 45.9023V45.4873C23.6445 44.68 23.4541 44.0534 23.0732 43.6074C22.6956 43.1582 22.1585 42.9303 21.4619 42.9238H20.3682ZM32.498 42.1523V46.9863C32.4948 47.6569 32.2832 48.2054 31.8633 48.6318C31.4466 49.0583 30.8802 49.2975 30.1641 49.3496L29.915 49.3594C29.137 49.3594 28.5169 49.1494 28.0547 48.7295C27.5924 48.3096 27.3581 47.7318 27.3516 46.9961V42.1523H28.2793V46.9668C28.2793 47.4811 28.4209 47.8815 28.7041 48.168C28.9873 48.4512 29.391 48.5928 29.915 48.5928C30.4456 48.5928 30.8509 48.4512 31.1309 48.168C31.4141 47.8848 31.5557 47.486 31.5557 46.9717V42.1523H32.498ZM36.4199 48.4951H39.7891V49.2617H35.4775V42.1523H36.4199V48.4951ZM46.377 45.9756H43.2959V48.4951H46.875V49.2617H42.3584V42.1523H46.8262V42.9238H43.2959V45.209H46.377V45.9756ZM51.6367 46.0928C50.8327 45.8617 50.2467 45.5785 49.8789 45.2432C49.5143 44.9046 49.332 44.488 49.332 43.9932C49.332 43.4333 49.555 42.971 50.001 42.6064C50.4502 42.2386 51.0329 42.0547 51.749 42.0547C52.2373 42.0547 52.6719 42.1491 53.0527 42.3379C53.4368 42.5267 53.7331 42.7871 53.9414 43.1191C54.153 43.4512 54.2588 43.8141 54.2588 44.208H53.3164C53.3164 43.7783 53.1797 43.4414 52.9062 43.1973C52.6328 42.9499 52.2471 42.8262 51.749 42.8262C51.2868 42.8262 50.9255 42.9287 50.665 43.1338C50.4079 43.3356 50.2793 43.6172 50.2793 43.9785C50.2793 44.2682 50.4014 44.514 50.6455 44.7158C50.8929 44.9144 51.3112 45.0967 51.9004 45.2627C52.4928 45.4287 52.9551 45.6126 53.2871 45.8145C53.6224 46.013 53.8698 46.2458 54.0293 46.5127C54.1921 46.7796 54.2734 47.0938 54.2734 47.4551C54.2734 48.0312 54.0488 48.4935 53.5996 48.8418C53.1504 49.1868 52.5498 49.3594 51.7979 49.3594C51.3096 49.3594 50.8538 49.2666 50.4307 49.0811C50.0075 48.8923 49.6803 48.6351 49.4492 48.3096C49.2214 47.984 49.1074 47.6146 49.1074 47.2012H50.0498C50.0498 47.6309 50.2077 47.971 50.5234 48.2217C50.8424 48.4691 51.2673 48.5928 51.7979 48.5928C52.2926 48.5928 52.6719 48.4919 52.9355 48.29C53.1992 48.0882 53.3311 47.8132 53.3311 47.4648C53.3311 47.1165 53.209 46.848 52.9648 46.6592C52.7207 46.4671 52.278 46.2783 51.6367 46.0928Z" fill="white" fill-opacity="0.85"/>
<path d="M15.75 28.125H14.8125C14.3152 28.125 13.8383 27.9275 13.4867 27.5758C13.135 27.2242 12.9375 26.7473 12.9375 26.25V6.5625C12.9375 6.06522 13.135 5.58831 13.4867 5.23667C13.8383 4.88504 14.3152 4.6875 14.8125 4.6875H15.75C16.2473 4.6875 16.7242 4.88504 17.0758 5.23667C17.4275 5.58831 17.625 6.06522 17.625 6.5625V26.25C17.625 26.7473 17.4275 27.2242 17.0758 27.5758C16.7242 27.9275 16.2473 28.125 15.75 28.125ZM26.0625 10.3125C26.0625 9.81522 25.865 9.33831 25.5133 8.98668C25.1617 8.63504 24.6848 8.4375 24.1875 8.4375H20.4375C19.9402 8.4375 19.4633 8.63504 19.1117 8.98668C18.76 9.33831 18.5625 9.81522 18.5625 10.3125V11.9531C18.5625 12.0153 18.5872 12.0749 18.6311 12.1189C18.6751 12.1628 18.7347 12.1875 18.7969 12.1875H25.8281C25.8903 12.1875 25.9499 12.1628 25.9939 12.1189C26.0378 12.0749 26.0625 12.0153 26.0625 11.9531V10.3125ZM18.5625 26.25C18.5625 26.7473 18.76 27.2242 19.1117 27.5758C19.4633 27.9275 19.9402 28.125 20.4375 28.125H24.1875C24.6848 28.125 25.1617 27.9275 25.5133 27.5758C25.865 27.2242 26.0625 26.7473 26.0625 26.25V24.4922C26.0625 24.4611 26.0502 24.4313 26.0282 24.4093C26.0062 24.3873 25.9764 24.375 25.9453 24.375H18.6797C18.6486 24.375 18.6188 24.3873 18.5968 24.4093C18.5748 24.4313 18.5625 24.4611 18.5625 24.4922V26.25Z" fill="white" fill-opacity="0.9"/>
<path d="M25.9453 14.0625H18.6797C18.615 14.0625 18.5625 14.115 18.5625 14.1797V22.3828C18.5625 22.4475 18.615 22.5 18.6797 22.5H25.9453C26.01 22.5 26.0625 22.4475 26.0625 22.3828V14.1797C26.0625 14.115 26.01 14.0625 25.9453 14.0625Z" fill="white" fill-opacity="0.9"/>
<path d="M30.75 28.125H28.875C28.3777 28.125 27.9008 27.9275 27.5492 27.5758C27.1975 27.2242 27 26.7473 27 26.25V3.75C27 3.25272 27.1975 2.77581 27.5492 2.42417C27.9008 2.07254 28.3777 1.875 28.875 1.875H30.75C31.2473 1.875 31.7242 2.07254 32.0758 2.42417C32.4275 2.77581 32.625 3.25272 32.625 3.75V26.25C32.625 26.7473 32.4275 27.2242 32.0758 27.5758C31.7242 27.9275 31.2473 28.125 30.75 28.125ZM41.0561 26.1006L39.1676 6.17871C39.0809 5.26172 38.175 4.59668 37.1443 4.6957L35.2781 4.87148C34.2475 4.96934 33.4822 5.79199 33.569 6.70898L35.4574 26.6309C35.5441 27.5479 36.45 28.2129 37.4807 28.1139L39.3469 27.9381C40.3776 27.8402 41.1428 27.0176 41.0561 26.1006Z" fill="white" fill-opacity="0.9"/>
</svg>
