<svg width="55" height="53" viewBox="0 0 55 53" fill="none" xmlns="http://www.w3.org/2000/svg">
<path d="M2.54883 42.1523L4.375 47.3086L6.19141 42.1523H8.11523V49.2617H6.64551V47.3184L6.79199 43.9639L4.87305 49.2617H3.86719L1.95312 43.9688L2.09961 47.3184V49.2617H0.634766V42.1523H2.54883ZM16.7344 45.8682C16.7344 46.568 16.6107 47.1816 16.3633 47.709C16.1159 48.2363 15.7611 48.6432 15.2988 48.9297C14.8398 49.2161 14.3125 49.3594 13.7168 49.3594C13.1276 49.3594 12.6019 49.2178 12.1396 48.9346C11.6774 48.6514 11.3193 48.2477 11.0654 47.7236C10.8115 47.1963 10.6829 46.5908 10.6797 45.9072V45.5557C10.6797 44.8558 10.805 44.2406 11.0557 43.71C11.3096 43.1761 11.666 42.7676 12.125 42.4844C12.5872 42.1979 13.1146 42.0547 13.707 42.0547C14.2995 42.0547 14.8252 42.1979 15.2842 42.4844C15.7464 42.7676 16.1029 43.1761 16.3535 43.71C16.6074 44.2406 16.7344 44.8542 16.7344 45.5508V45.8682ZM15.25 45.5459C15.25 44.8005 15.1165 44.234 14.8496 43.8467C14.5827 43.4593 14.2018 43.2656 13.707 43.2656C13.2155 43.2656 12.8363 43.4577 12.5693 43.8418C12.3024 44.2227 12.1673 44.7826 12.1641 45.5215V45.8682C12.1641 46.5941 12.2975 47.1572 12.5645 47.5576C12.8314 47.958 13.2155 48.1582 13.7168 48.1582C14.2083 48.1582 14.5859 47.9661 14.8496 47.582C15.1133 47.1947 15.2467 46.6315 15.25 45.8926V45.5459ZM19.2988 49.2617V42.1523H21.4863C22.1113 42.1523 22.6696 42.2939 23.1611 42.5771C23.6559 42.8571 24.0417 43.2575 24.3184 43.7783C24.5951 44.2959 24.7334 44.8851 24.7334 45.5459V45.873C24.7334 46.5339 24.5967 47.1214 24.3232 47.6357C24.0531 48.1501 23.6706 48.5488 23.1758 48.832C22.681 49.1152 22.1227 49.2585 21.501 49.2617H19.2988ZM20.7637 43.3389V48.085H21.4717C22.0446 48.085 22.4824 47.8978 22.7852 47.5234C23.0879 47.1491 23.2425 46.6136 23.249 45.917V45.541C23.249 44.8184 23.0993 44.2715 22.7998 43.9004C22.5003 43.526 22.0625 43.3389 21.4863 43.3389H20.7637ZM32.6836 42.1523V46.835C32.6836 47.613 32.4395 48.2282 31.9512 48.6807C31.4661 49.1331 30.8021 49.3594 29.959 49.3594C29.1289 49.3594 28.4697 49.1396 27.9814 48.7002C27.4932 48.2607 27.2441 47.6569 27.2344 46.8887V42.1523H28.6992V46.8447C28.6992 47.3102 28.8099 47.6504 29.0312 47.8652C29.2559 48.0768 29.5651 48.1826 29.959 48.1826C30.7826 48.1826 31.2008 47.7497 31.2139 46.8838V42.1523H32.6836ZM36.8496 48.085H39.96V49.2617H35.3848V42.1523H36.8496V48.085ZM46.582 46.1807H43.7695V48.085H47.0703V49.2617H42.3047V42.1523H47.0605V43.3389H43.7695V45.0332H46.582V46.1807ZM53.1162 47.3965C53.1162 47.1198 53.0186 46.9082 52.8232 46.7617C52.6279 46.612 52.2764 46.4557 51.7686 46.293C51.2607 46.127 50.8587 45.9642 50.5625 45.8047C49.7552 45.3685 49.3516 44.7809 49.3516 44.042C49.3516 43.6579 49.459 43.3161 49.6738 43.0166C49.8919 42.7139 50.2028 42.4779 50.6064 42.3086C51.0133 42.1393 51.4691 42.0547 51.9736 42.0547C52.4814 42.0547 52.9339 42.1475 53.3311 42.333C53.7282 42.5153 54.0358 42.7741 54.2539 43.1094C54.4753 43.4447 54.5859 43.8255 54.5859 44.252H53.1211C53.1211 43.9264 53.0186 43.6742 52.8135 43.4951C52.6084 43.3128 52.3203 43.2217 51.9492 43.2217C51.5911 43.2217 51.3128 43.2982 51.1143 43.4512C50.9157 43.6009 50.8164 43.7995 50.8164 44.0469C50.8164 44.278 50.932 44.4717 51.1631 44.6279C51.3975 44.7842 51.7409 44.9307 52.1934 45.0674C53.0267 45.318 53.6338 45.6289 54.0146 46C54.3955 46.3711 54.5859 46.8333 54.5859 47.3867C54.5859 48.002 54.3532 48.4854 53.8877 48.8369C53.4222 49.1852 52.7956 49.3594 52.0078 49.3594C51.4609 49.3594 50.9629 49.2601 50.5137 49.0615C50.0645 48.8597 49.721 48.5846 49.4834 48.2363C49.249 47.888 49.1318 47.4844 49.1318 47.0254H50.6016C50.6016 47.8099 51.0703 48.2021 52.0078 48.2021C52.3561 48.2021 52.6279 48.1322 52.8232 47.9922C53.0186 47.849 53.1162 47.6504 53.1162 47.3965Z" fill="#15294B"/>
<path d="M16.75 28.125H15.8125C15.3152 28.125 14.8383 27.9275 14.4867 27.5758C14.135 27.2242 13.9375 26.7473 13.9375 26.25V6.5625C13.9375 6.06522 14.135 5.58831 14.4867 5.23667C14.8383 4.88504 15.3152 4.6875 15.8125 4.6875H16.75C17.2473 4.6875 17.7242 4.88504 18.0758 5.23667C18.4275 5.58831 18.625 6.06522 18.625 6.5625V26.25C18.625 26.7473 18.4275 27.2242 18.0758 27.5758C17.7242 27.9275 17.2473 28.125 16.75 28.125ZM27.0625 10.3125C27.0625 9.81522 26.865 9.33831 26.5133 8.98668C26.1617 8.63504 25.6848 8.4375 25.1875 8.4375H21.4375C20.9402 8.4375 20.4633 8.63504 20.1117 8.98668C19.76 9.33831 19.5625 9.81522 19.5625 10.3125V11.9531C19.5625 12.0153 19.5872 12.0749 19.6311 12.1189C19.6751 12.1628 19.7347 12.1875 19.7969 12.1875H26.8281C26.8903 12.1875 26.9499 12.1628 26.9939 12.1189C27.0378 12.0749 27.0625 12.0153 27.0625 11.9531V10.3125ZM19.5625 26.25C19.5625 26.7473 19.76 27.2242 20.1117 27.5758C20.4633 27.9275 20.9402 28.125 21.4375 28.125H25.1875C25.6848 28.125 26.1617 27.9275 26.5133 27.5758C26.865 27.2242 27.0625 26.7473 27.0625 26.25V24.4922C27.0625 24.4611 27.0502 24.4313 27.0282 24.4093C27.0062 24.3873 26.9764 24.375 26.9453 24.375H19.6797C19.6486 24.375 19.6188 24.3873 19.5968 24.4093C19.5748 24.4313 19.5625 24.4611 19.5625 24.4922V26.25Z" fill="#15294B"/>
<path d="M26.9453 14.0625H19.6797C19.615 14.0625 19.5625 14.115 19.5625 14.1797V22.3828C19.5625 22.4475 19.615 22.5 19.6797 22.5H26.9453C27.01 22.5 27.0625 22.4475 27.0625 22.3828V14.1797C27.0625 14.115 27.01 14.0625 26.9453 14.0625Z" fill="#15294B"/>
<path d="M31.75 28.125H29.875C29.3777 28.125 28.9008 27.9275 28.5492 27.5758C28.1975 27.2242 28 26.7473 28 26.25V3.75C28 3.25272 28.1975 2.77581 28.5492 2.42417C28.9008 2.07254 29.3777 1.875 29.875 1.875H31.75C32.2473 1.875 32.7242 2.07254 33.0758 2.42417C33.4275 2.77581 33.625 3.25272 33.625 3.75V26.25C33.625 26.7473 33.4275 27.2242 33.0758 27.5758C32.7242 27.9275 32.2473 28.125 31.75 28.125ZM42.0561 26.1006L40.1676 6.17871C40.0809 5.26172 39.175 4.59668 38.1443 4.6957L36.2781 4.87148C35.2475 4.96934 34.4822 5.79199 34.569 6.70898L36.4574 26.6309C36.5441 27.5479 37.45 28.2129 38.4807 28.1139L40.3469 27.9381C41.3776 27.8402 42.1428 27.0176 42.0561 26.1006Z" fill="#15294B"/>
</svg>
