<svg width="33" height="52" viewBox="0 0 33 52" fill="none" xmlns="http://www.w3.org/2000/svg">
<path d="M6.28906 49H5.34668V45.7139H1.7627V49H0.825195V41.8906H1.7627V44.9473H5.34668V41.8906H6.28906V49ZM14.9229 45.6748C14.9229 46.3714 14.8057 46.9801 14.5713 47.501C14.3369 48.0186 14.0049 48.4141 13.5752 48.6875C13.1455 48.9609 12.6442 49.0977 12.0713 49.0977C11.5114 49.0977 11.015 48.9609 10.582 48.6875C10.1491 48.4108 9.81217 48.0186 9.57129 47.5107C9.33366 46.9997 9.21159 46.4089 9.20508 45.7383V45.2256C9.20508 44.542 9.32389 43.9382 9.56152 43.4141C9.79915 42.89 10.1344 42.4896 10.5674 42.2129C11.0036 41.9329 11.5016 41.793 12.0615 41.793C12.6312 41.793 13.1325 41.9313 13.5654 42.208C14.0016 42.4814 14.3369 42.8802 14.5713 43.4043C14.8057 43.9251 14.9229 44.5322 14.9229 45.2256V45.6748ZM13.9902 45.2158C13.9902 44.3727 13.821 43.7266 13.4824 43.2773C13.1439 42.8249 12.6702 42.5986 12.0615 42.5986C11.4691 42.5986 11.002 42.8249 10.6602 43.2773C10.3216 43.7266 10.1475 44.3516 10.1377 45.1523V45.6748C10.1377 46.4919 10.3086 47.1348 10.6504 47.6035C10.9954 48.069 11.4691 48.3018 12.0713 48.3018C12.6768 48.3018 13.1455 48.082 13.4775 47.6426C13.8096 47.1999 13.9805 46.5667 13.9902 45.7432V45.2158ZM19.04 41.8906L21.3643 47.6914L23.6885 41.8906H24.9043V49H23.9668V46.2314L24.0547 43.2432L21.7207 49H21.0029L18.6738 43.2578L18.7666 46.2314V49H17.8291V41.8906H19.04ZM32.0781 45.7139H28.9971V48.2334H32.5762V49H28.0596V41.8906H32.5273V42.6621H28.9971V44.9473H32.0781V45.7139Z" fill="white" fill-opacity="0.9"/>
<path d="M16.3259 5.93471C16.2387 5.85126 16.1226 5.80469 16.0019 5.80469C15.8812 5.80469 15.7651 5.85126 15.6779 5.93471L4.89075 16.2396C4.84494 16.2834 4.80849 16.3361 4.78361 16.3944C4.75874 16.4527 4.74595 16.5155 4.74602 16.5789L4.74426 26.2503C4.74426 26.7476 4.94181 27.2245 5.29344 27.5762C5.64507 27.9278 6.12198 28.1253 6.61926 28.1253H12.2501C12.4988 28.1253 12.7372 28.0266 12.913 27.8507C13.0888 27.6749 13.1876 27.4365 13.1876 27.1878V19.2191C13.1876 19.0948 13.237 18.9755 13.3249 18.8876C13.4128 18.7997 13.5321 18.7503 13.6564 18.7503H18.3439C18.4682 18.7503 18.5874 18.7997 18.6753 18.8876C18.7632 18.9755 18.8126 19.0948 18.8126 19.2191V27.1878C18.8126 27.4365 18.9114 27.6749 19.0872 27.8507C19.263 28.0266 19.5015 28.1253 19.7501 28.1253H25.3786C25.8759 28.1253 26.3528 27.9278 26.7045 27.5762C27.0561 27.2245 27.2536 26.7476 27.2536 26.2503V16.5789C27.2537 16.5155 27.2409 16.4527 27.216 16.3944C27.1912 16.3361 27.1547 16.2834 27.1089 16.2396L16.3259 5.93471Z" fill="white" fill-opacity="0.9"/>
<path d="M29.7644 14.3057L25.3816 10.1127V3.75C25.3816 3.50136 25.2828 3.2629 25.107 3.08709C24.9312 2.91127 24.6927 2.8125 24.4441 2.8125H21.6316C21.3829 2.8125 21.1445 2.91127 20.9687 3.08709C20.7929 3.2629 20.6941 3.50136 20.6941 3.75V5.625L17.3003 2.38008C16.9828 2.05898 16.5105 1.875 16.0001 1.875C15.4916 1.875 15.0205 2.05898 14.7029 2.38066L2.23999 14.3045C1.87553 14.6561 1.82983 15.2344 2.16147 15.6152C2.24475 15.7114 2.34672 15.7896 2.46118 15.845C2.57563 15.9005 2.70018 15.9321 2.82724 15.9379C2.9543 15.9437 3.08121 15.9236 3.20025 15.8788C3.31929 15.834 3.42797 15.7655 3.51968 15.6774L15.6779 4.05938C15.7651 3.97593 15.8812 3.92935 16.0019 3.92935C16.1226 3.92935 16.2387 3.97593 16.3259 4.05938L28.4853 15.6774C28.6644 15.8491 28.9043 15.9429 29.1524 15.938C29.4006 15.9332 29.6366 15.8302 29.8089 15.6516C30.1687 15.2789 30.1388 14.6637 29.7644 14.3057Z" fill="white" fill-opacity="0.9"/>
</svg>
