<svg width="81" height="53" viewBox="0 0 81 53" fill="none" xmlns="http://www.w3.org/2000/svg">
<path d="M1.83105 49.2617H0.893555V42.1523H1.83105V49.2617ZM10.5137 49.2617H9.57129L5.99219 43.7832V49.2617H5.0498V42.1523H5.99219L9.58105 47.6553V42.1523H10.5137V49.2617ZM15.7734 46.0928C14.9694 45.8617 14.3835 45.5785 14.0156 45.2432C13.651 44.9046 13.4688 44.488 13.4688 43.9932C13.4688 43.4333 13.6917 42.971 14.1377 42.6064C14.5869 42.2386 15.1696 42.0547 15.8857 42.0547C16.374 42.0547 16.8086 42.1491 17.1895 42.3379C17.5736 42.5267 17.8698 42.7871 18.0781 43.1191C18.2897 43.4512 18.3955 43.8141 18.3955 44.208H17.4531C17.4531 43.7783 17.3164 43.4414 17.043 43.1973C16.7695 42.9499 16.3838 42.8262 15.8857 42.8262C15.4235 42.8262 15.0622 42.9287 14.8018 43.1338C14.5446 43.3356 14.416 43.6172 14.416 43.9785C14.416 44.2682 14.5381 44.514 14.7822 44.7158C15.0296 44.9144 15.4479 45.0967 16.0371 45.2627C16.6296 45.4287 17.0918 45.6126 17.4238 45.8145C17.7591 46.013 18.0065 46.2458 18.166 46.5127C18.3288 46.7796 18.4102 47.0938 18.4102 47.4551C18.4102 48.0312 18.1855 48.4935 17.7363 48.8418C17.2871 49.1868 16.6865 49.3594 15.9346 49.3594C15.4463 49.3594 14.9906 49.2666 14.5674 49.0811C14.1442 48.8923 13.8171 48.6351 13.5859 48.3096C13.3581 47.984 13.2441 47.6146 13.2441 47.2012H14.1865C14.1865 47.6309 14.3444 47.971 14.6602 48.2217C14.9792 48.4691 15.404 48.5928 15.9346 48.5928C16.4294 48.5928 16.8086 48.4919 17.0723 48.29C17.3359 48.0882 17.4678 47.8132 17.4678 47.4648C17.4678 47.1165 17.3457 46.848 17.1016 46.6592C16.8574 46.4671 16.4147 46.2783 15.7734 46.0928ZM26.0283 42.9238H23.7432V49.2617H22.8105V42.9238H20.5303V42.1523H26.0283V42.9238ZM31.1904 46.3857H29.5205V49.2617H28.5781V42.1523H30.9316C31.7324 42.1523 32.3477 42.3346 32.7773 42.6992C33.2103 43.0638 33.4268 43.5944 33.4268 44.291C33.4268 44.7337 33.3063 45.1195 33.0654 45.4482C32.8278 45.777 32.4958 46.0228 32.0693 46.1855L33.7393 49.2031V49.2617H32.7334L31.1904 46.3857ZM29.5205 45.6191H30.9609C31.4264 45.6191 31.7959 45.4987 32.0693 45.2578C32.346 45.0169 32.4844 44.6947 32.4844 44.291C32.4844 43.8516 32.3525 43.5146 32.0889 43.2803C31.8285 43.0459 31.4508 42.9271 30.9561 42.9238H29.5205V45.6191ZM41.25 42.1523V46.9863C41.2467 47.6569 41.0352 48.2054 40.6152 48.6318C40.1986 49.0583 39.6322 49.2975 38.916 49.3496L38.667 49.3594C37.889 49.3594 37.2689 49.1494 36.8066 48.7295C36.3444 48.3096 36.11 47.7318 36.1035 46.9961V42.1523H37.0312V46.9668C37.0312 47.4811 37.1729 47.8815 37.4561 48.168C37.7393 48.4512 38.1429 48.5928 38.667 48.5928C39.1976 48.5928 39.6029 48.4512 39.8828 48.168C40.166 47.8848 40.3076 47.486 40.3076 46.9717V42.1523H41.25ZM49.459 47.0059C49.3711 47.7578 49.0928 48.3389 48.624 48.749C48.1585 49.1559 47.5384 49.3594 46.7637 49.3594C45.9238 49.3594 45.25 49.0583 44.7422 48.4561C44.2376 47.8538 43.9854 47.0482 43.9854 46.0391V45.3555C43.9854 44.6947 44.1025 44.1136 44.3369 43.6123C44.5745 43.111 44.9098 42.7269 45.3428 42.46C45.7757 42.1898 46.277 42.0547 46.8467 42.0547C47.6019 42.0547 48.2074 42.2663 48.6631 42.6895C49.1188 43.1094 49.3841 43.6921 49.459 44.4375H48.5166C48.4352 43.8711 48.2578 43.4609 47.9844 43.207C47.7142 42.9531 47.335 42.8262 46.8467 42.8262C46.2477 42.8262 45.7773 43.0475 45.4355 43.4902C45.097 43.9329 44.9277 44.5628 44.9277 45.3799V46.0684C44.9277 46.8398 45.0889 47.4535 45.4111 47.9092C45.7334 48.3649 46.1842 48.5928 46.7637 48.5928C47.2845 48.5928 47.6833 48.4756 47.96 48.2412C48.2399 48.0036 48.4255 47.5918 48.5166 47.0059H49.459ZM57.0088 42.9238H54.7236V49.2617H53.791V42.9238H51.5107V42.1523H57.0088V42.9238ZM64.8955 45.9365C64.8955 46.6331 64.7783 47.2419 64.5439 47.7627C64.3096 48.2803 63.9775 48.6758 63.5479 48.9492C63.1182 49.2227 62.6169 49.3594 62.0439 49.3594C61.484 49.3594 60.9876 49.2227 60.5547 48.9492C60.1217 48.6725 59.7848 48.2803 59.5439 47.7725C59.3063 47.2614 59.1842 46.6706 59.1777 46V45.4873C59.1777 44.8037 59.2965 44.1999 59.5342 43.6758C59.7718 43.1517 60.1071 42.7513 60.54 42.4746C60.9762 42.1947 61.4743 42.0547 62.0342 42.0547C62.6038 42.0547 63.1051 42.193 63.5381 42.4697C63.9743 42.7432 64.3096 43.1419 64.5439 43.666C64.7783 44.1868 64.8955 44.7939 64.8955 45.4873V45.9365ZM63.9629 45.4775C63.9629 44.6344 63.7936 43.9883 63.4551 43.5391C63.1165 43.0866 62.6429 42.8604 62.0342 42.8604C61.4417 42.8604 60.9746 43.0866 60.6328 43.5391C60.2943 43.9883 60.1201 44.6133 60.1104 45.4141V45.9365C60.1104 46.7536 60.2812 47.3965 60.623 47.8652C60.9681 48.3307 61.4417 48.5635 62.0439 48.5635C62.6494 48.5635 63.1182 48.3438 63.4502 47.9043C63.7822 47.4616 63.9531 46.8285 63.9629 46.0049V45.4775ZM70.4092 46.3857H68.7393V49.2617H67.7969V42.1523H70.1504C70.9512 42.1523 71.5664 42.3346 71.9961 42.6992C72.429 43.0638 72.6455 43.5944 72.6455 44.291C72.6455 44.7337 72.5251 45.1195 72.2842 45.4482C72.0465 45.777 71.7145 46.0228 71.2881 46.1855L72.958 49.2031V49.2617H71.9521L70.4092 46.3857ZM68.7393 45.6191H70.1797C70.6452 45.6191 71.0146 45.4987 71.2881 45.2578C71.5648 45.0169 71.7031 44.6947 71.7031 44.291C71.7031 43.8516 71.5713 43.5146 71.3076 43.2803C71.0472 43.0459 70.6696 42.9271 70.1748 42.9238H68.7393V45.6191ZM77.5586 46.0928C76.7546 45.8617 76.1686 45.5785 75.8008 45.2432C75.4362 44.9046 75.2539 44.488 75.2539 43.9932C75.2539 43.4333 75.4769 42.971 75.9229 42.6064C76.3721 42.2386 76.9548 42.0547 77.6709 42.0547C78.1592 42.0547 78.5938 42.1491 78.9746 42.3379C79.3587 42.5267 79.6549 42.7871 79.8633 43.1191C80.0749 43.4512 80.1807 43.8141 80.1807 44.208H79.2383C79.2383 43.7783 79.1016 43.4414 78.8281 43.1973C78.5547 42.9499 78.1689 42.8262 77.6709 42.8262C77.2087 42.8262 76.8473 42.9287 76.5869 43.1338C76.3298 43.3356 76.2012 43.6172 76.2012 43.9785C76.2012 44.2682 76.3232 44.514 76.5674 44.7158C76.8148 44.9144 77.2331 45.0967 77.8223 45.2627C78.4147 45.4287 78.877 45.6126 79.209 45.8145C79.5443 46.013 79.7917 46.2458 79.9512 46.5127C80.1139 46.7796 80.1953 47.0938 80.1953 47.4551C80.1953 48.0312 79.9707 48.4935 79.5215 48.8418C79.0723 49.1868 78.4717 49.3594 77.7197 49.3594C77.2314 49.3594 76.7757 49.2666 76.3525 49.0811C75.9294 48.8923 75.6022 48.6351 75.3711 48.3096C75.1432 47.984 75.0293 47.6146 75.0293 47.2012H75.9717C75.9717 47.6309 76.1296 47.971 76.4453 48.2217C76.7643 48.4691 77.1891 48.5928 77.7197 48.5928C78.2145 48.5928 78.5938 48.4919 78.8574 48.29C79.1211 48.0882 79.2529 47.8132 79.2529 47.4648C79.2529 47.1165 79.1309 46.848 78.8867 46.6592C78.6426 46.4671 78.1999 46.2783 77.5586 46.0928Z" fill="white" fill-opacity="0.85"/>
<path d="M37.25 16.2497C40.0114 16.2497 42.25 14.0112 42.25 11.2497C42.25 8.48833 40.0114 6.24976 37.25 6.24976C34.4886 6.24976 32.25 8.48833 32.25 11.2497C32.25 14.0112 34.4886 16.2497 37.25 16.2497Z" fill="white" fill-opacity="0.9"/>
<path d="M37.25 18.7498C33.9125 18.7498 27.25 20.4248 27.25 23.7498V26.2498H47.25V23.7498C47.25 20.4248 40.5875 18.7498 37.25 18.7498ZM46.95 6.69976L44.85 8.81226C45.9 10.2873 45.9 12.1998 44.85 13.6748L46.95 15.7873C49.475 13.2623 49.475 9.44976 46.95 6.69976ZM51.0875 2.49976L49.05 4.53726C52.5125 8.31226 52.5125 13.9873 49.05 17.9623L51.0875 19.9998C55.9625 15.1373 55.975 7.56226 51.0875 2.49976Z" fill="white" fill-opacity="0.9"/>
</svg>
