<svg width="83" height="53" viewBox="0 0 83 53" fill="none" xmlns="http://www.w3.org/2000/svg">
<path d="M2.19238 49.2617H0.727539V42.1523H2.19238V49.2617ZM10.8359 49.2617H9.37109L6.51953 44.584V49.2617H5.05469V42.1523H6.51953L9.37598 46.8398V42.1523H10.8359V49.2617ZM17.3018 47.3965C17.3018 47.1198 17.2041 46.9082 17.0088 46.7617C16.8135 46.612 16.4619 46.4557 15.9541 46.293C15.4463 46.127 15.0443 45.9642 14.748 45.8047C13.9408 45.3685 13.5371 44.7809 13.5371 44.042C13.5371 43.6579 13.6445 43.3161 13.8594 43.0166C14.0775 42.7139 14.3883 42.4779 14.792 42.3086C15.1989 42.1393 15.6546 42.0547 16.1592 42.0547C16.667 42.0547 17.1195 42.1475 17.5166 42.333C17.9137 42.5153 18.2214 42.7741 18.4395 43.1094C18.6608 43.4447 18.7715 43.8255 18.7715 44.252H17.3066C17.3066 43.9264 17.2041 43.6742 16.999 43.4951C16.7939 43.3128 16.5059 43.2217 16.1348 43.2217C15.7767 43.2217 15.4984 43.2982 15.2998 43.4512C15.1012 43.6009 15.002 43.7995 15.002 44.0469C15.002 44.278 15.1175 44.4717 15.3486 44.6279C15.583 44.7842 15.9264 44.9307 16.3789 45.0674C17.2122 45.318 17.8193 45.6289 18.2002 46C18.5811 46.3711 18.7715 46.8333 18.7715 47.3867C18.7715 48.002 18.5387 48.4854 18.0732 48.8369C17.6077 49.1852 16.9811 49.3594 16.1934 49.3594C15.6465 49.3594 15.1484 49.2601 14.6992 49.0615C14.25 48.8597 13.9066 48.5846 13.6689 48.2363C13.4346 47.888 13.3174 47.4844 13.3174 47.0254H14.7871C14.7871 47.8099 15.2559 48.2021 16.1934 48.2021C16.5417 48.2021 16.8135 48.1322 17.0088 47.9922C17.2041 47.849 17.3018 47.6504 17.3018 47.3965ZM26.6191 43.3389H24.4414V49.2617H22.9766V43.3389H20.8281V42.1523H26.6191V43.3389ZM31.5908 46.6592H30.4238V49.2617H28.959V42.1523H31.6006C32.4404 42.1523 33.0882 42.3395 33.5439 42.7139C33.9997 43.0882 34.2275 43.6172 34.2275 44.3008C34.2275 44.7858 34.1217 45.1911 33.9102 45.5166C33.7018 45.8389 33.3844 46.096 32.958 46.2881L34.4961 49.1934V49.2617H32.9238L31.5908 46.6592ZM30.4238 45.4727H31.6055C31.9733 45.4727 32.2581 45.3799 32.46 45.1943C32.6618 45.0055 32.7627 44.7467 32.7627 44.418C32.7627 44.0827 32.6667 43.819 32.4746 43.627C32.2858 43.4349 31.9945 43.3389 31.6006 43.3389H30.4238V45.4727ZM42.2266 42.1523V46.835C42.2266 47.613 41.9824 48.2282 41.4941 48.6807C41.0091 49.1331 40.3451 49.3594 39.502 49.3594C38.6719 49.3594 38.0127 49.1396 37.5244 48.7002C37.0361 48.2607 36.7871 47.6569 36.7773 46.8887V42.1523H38.2422V46.8447C38.2422 47.3102 38.3529 47.6504 38.5742 47.8652C38.7988 48.0768 39.1081 48.1826 39.502 48.1826C40.3255 48.1826 40.7438 47.7497 40.7568 46.8838V42.1523H42.2266ZM50.5088 46.8936C50.4535 47.6585 50.1702 48.2607 49.6592 48.7002C49.1514 49.1396 48.4808 49.3594 47.6475 49.3594C46.736 49.3594 46.0182 49.0534 45.4941 48.4414C44.9733 47.8262 44.7129 46.9831 44.7129 45.9121V45.4775C44.7129 44.7939 44.8333 44.1917 45.0742 43.6709C45.3151 43.1501 45.6585 42.7513 46.1045 42.4746C46.5537 42.1947 47.0745 42.0547 47.667 42.0547C48.4873 42.0547 49.1481 42.2744 49.6494 42.7139C50.1507 43.1533 50.4404 43.7702 50.5186 44.5645H49.0537C49.0179 44.1055 48.8893 43.7734 48.668 43.5684C48.4499 43.36 48.1162 43.2559 47.667 43.2559C47.1787 43.2559 46.8125 43.4316 46.5684 43.7832C46.3275 44.1315 46.2038 44.6735 46.1973 45.4092V45.9463C46.1973 46.7145 46.3128 47.276 46.5439 47.6309C46.7783 47.9857 47.1462 48.1631 47.6475 48.1631C48.0999 48.1631 48.4368 48.0605 48.6582 47.8555C48.8828 47.6471 49.0114 47.3265 49.0439 46.8936H50.5088ZM58.1758 43.3389H55.998V49.2617H54.5332V43.3389H52.3848V42.1523H58.1758V43.3389ZM66.2188 45.8682C66.2188 46.568 66.0951 47.1816 65.8477 47.709C65.6003 48.2363 65.2454 48.6432 64.7832 48.9297C64.3242 49.2161 63.7969 49.3594 63.2012 49.3594C62.612 49.3594 62.0863 49.2178 61.624 48.9346C61.1618 48.6514 60.8037 48.2477 60.5498 47.7236C60.2959 47.1963 60.1673 46.5908 60.1641 45.9072V45.5557C60.1641 44.8558 60.2894 44.2406 60.54 43.71C60.7939 43.1761 61.1504 42.7676 61.6094 42.4844C62.0716 42.1979 62.599 42.0547 63.1914 42.0547C63.7839 42.0547 64.3096 42.1979 64.7686 42.4844C65.2308 42.7676 65.5872 43.1761 65.8379 43.71C66.0918 44.2406 66.2188 44.8542 66.2188 45.5508V45.8682ZM64.7344 45.5459C64.7344 44.8005 64.6009 44.234 64.334 43.8467C64.0671 43.4593 63.6862 43.2656 63.1914 43.2656C62.6999 43.2656 62.3206 43.4577 62.0537 43.8418C61.7868 44.2227 61.6517 44.7826 61.6484 45.5215V45.8682C61.6484 46.5941 61.7819 47.1572 62.0488 47.5576C62.3158 47.958 62.6999 48.1582 63.2012 48.1582C63.6927 48.1582 64.0703 47.9661 64.334 47.582C64.5977 47.1947 64.7311 46.6315 64.7344 45.8926V45.5459ZM71.415 46.6592H70.248V49.2617H68.7832V42.1523H71.4248C72.2646 42.1523 72.9124 42.3395 73.3682 42.7139C73.8239 43.0882 74.0518 43.6172 74.0518 44.3008C74.0518 44.7858 73.946 45.1911 73.7344 45.5166C73.526 45.8389 73.2087 46.096 72.7822 46.2881L74.3203 49.1934V49.2617H72.748L71.415 46.6592ZM70.248 45.4727H71.4297C71.7975 45.4727 72.0824 45.3799 72.2842 45.1943C72.486 45.0055 72.5869 44.7467 72.5869 44.418C72.5869 44.0827 72.4909 43.819 72.2988 43.627C72.11 43.4349 71.8187 43.3389 71.4248 43.3389H70.248V45.4727ZM80.3564 47.3965C80.3564 47.1198 80.2588 46.9082 80.0635 46.7617C79.8682 46.612 79.5166 46.4557 79.0088 46.293C78.501 46.127 78.099 45.9642 77.8027 45.8047C76.9954 45.3685 76.5918 44.7809 76.5918 44.042C76.5918 43.6579 76.6992 43.3161 76.9141 43.0166C77.1322 42.7139 77.443 42.4779 77.8467 42.3086C78.2536 42.1393 78.7093 42.0547 79.2139 42.0547C79.7217 42.0547 80.1742 42.1475 80.5713 42.333C80.9684 42.5153 81.276 42.7741 81.4941 43.1094C81.7155 43.4447 81.8262 43.8255 81.8262 44.252H80.3613C80.3613 43.9264 80.2588 43.6742 80.0537 43.4951C79.8486 43.3128 79.5605 43.2217 79.1895 43.2217C78.8314 43.2217 78.5531 43.2982 78.3545 43.4512C78.1559 43.6009 78.0566 43.7995 78.0566 44.0469C78.0566 44.278 78.1722 44.4717 78.4033 44.6279C78.6377 44.7842 78.9811 44.9307 79.4336 45.0674C80.2669 45.318 80.874 45.6289 81.2549 46C81.6357 46.3711 81.8262 46.8333 81.8262 47.3867C81.8262 48.002 81.5934 48.4854 81.1279 48.8369C80.6624 49.1852 80.0358 49.3594 79.248 49.3594C78.7012 49.3594 78.2031 49.2601 77.7539 49.0615C77.3047 48.8597 76.9613 48.5846 76.7236 48.2363C76.4893 47.888 76.3721 47.4844 76.3721 47.0254H77.8418C77.8418 47.8099 78.3105 48.2021 79.248 48.2021C79.5964 48.2021 79.8682 48.1322 80.0635 47.9922C80.2588 47.849 80.3564 47.6504 80.3564 47.3965Z" fill="#15294B"/>
<path d="M37.25 16.2497C40.0114 16.2497 42.25 14.0112 42.25 11.2497C42.25 8.48833 40.0114 6.24976 37.25 6.24976C34.4886 6.24976 32.25 8.48833 32.25 11.2497C32.25 14.0112 34.4886 16.2497 37.25 16.2497Z" fill="#15294B"/>
<path d="M37.25 18.7498C33.9125 18.7498 27.25 20.4248 27.25 23.7498V26.2498H47.25V23.7498C47.25 20.4248 40.5875 18.7498 37.25 18.7498ZM46.95 6.69976L44.85 8.81226C45.9 10.2873 45.9 12.1998 44.85 13.6748L46.95 15.7873C49.475 13.2623 49.475 9.44976 46.95 6.69976ZM51.0875 2.49976L49.05 4.53726C52.5125 8.31226 52.5125 13.9873 49.05 17.9623L51.0875 19.9998C55.9625 15.1373 55.975 7.56226 51.0875 2.49976Z" fill="#15294B"/>
</svg>
