<svg width="24" height="24" viewBox="0 0 24 24" fill="none" xmlns="http://www.w3.org/2000/svg">
<path d="M12.3259 0.934711C12.2387 0.851263 12.1226 0.804688 12.0019 0.804688C11.8812 0.804688 11.7651 0.851263 11.6779 0.934711L0.890747 11.2396C0.844935 11.2834 0.808489 11.3361 0.783613 11.3944C0.758737 11.4527 0.745949 11.5155 0.74602 11.5789L0.744263 21.2503C0.744263 21.7476 0.941807 22.2245 1.29344 22.5762C1.64507 22.9278 2.12198 23.1253 2.61926 23.1253H8.25012C8.49876 23.1253 8.73722 23.0266 8.91303 22.8507C9.08885 22.6749 9.18762 22.4365 9.18762 22.1878V14.2191C9.18762 14.0948 9.23701 13.9755 9.32492 13.8876C9.41282 13.7997 9.53205 13.7503 9.65637 13.7503H14.3439C14.4682 13.7503 14.5874 13.7997 14.6753 13.8876C14.7632 13.9755 14.8126 14.0948 14.8126 14.2191V22.1878C14.8126 22.4365 14.9114 22.6749 15.0872 22.8507C15.263 23.0266 15.5015 23.1253 15.7501 23.1253H21.3786C21.8759 23.1253 22.3528 22.9278 22.7045 22.5762C23.0561 22.2245 23.2536 21.7476 23.2536 21.2503V11.5789C23.2537 11.5155 23.2409 11.4527 23.216 11.3944C23.1912 11.3361 23.1547 11.2834 23.1089 11.2396L12.3259 0.934711Z" fill="white" fill-opacity="0.9"/>
</svg>
