<svg width="30" height="30" viewBox="0 0 30 30" fill="none" xmlns="http://www.w3.org/2000/svg">
<circle cx="15" cy="15" r="15" fill="url(#paint0_linear)" fill-opacity="0.75"/>
<path d="M10.345 20.135C12.205 20.135 13.48 19.145 13.48 16.97V9.8H11.38V16.94C11.38 17.99 10.945 18.26 10.255 18.26C9.535 18.26 9.235 17.765 8.905 17.18L7.195 18.215C7.69 19.265 8.665 20.135 10.345 20.135ZM18.4464 20.135C20.4414 20.135 21.9264 19.1 21.9264 17.21C21.9264 15.455 20.9214 14.675 19.1364 13.91L18.6114 13.685C17.7114 13.295 17.3214 13.04 17.3214 12.41C17.3214 11.9 17.7114 11.51 18.3264 11.51C18.9264 11.51 19.3164 11.765 19.6764 12.41L21.3114 11.36C20.6214 10.145 19.6614 9.68 18.3264 9.68C16.4514 9.68 15.2514 10.88 15.2514 12.455C15.2514 14.165 16.2564 14.975 17.7714 15.62L18.2964 15.845C19.2564 16.265 19.8264 16.52 19.8264 17.24C19.8264 17.84 19.2714 18.275 18.4014 18.275C17.3664 18.275 16.7814 17.735 16.3314 17L14.6214 17.99C15.2364 19.205 16.4964 20.135 18.4464 20.135Z" fill="black"/>
<defs>
<linearGradient id="paint0_linear" x1="-2.27735e-07" y1="15.9868" x2="30" y2="15.9868" gradientUnits="userSpaceOnUse">
<stop stop-color="#F7DF1E"/>
<stop offset="1" stop-color="#FCB440"/>
</linearGradient>
</defs>
</svg>
