<svg width="30" height="30" viewBox="0 0 30 30" fill="none" xmlns="http://www.w3.org/2000/svg">
<path d="M3.75 28.125H2.8125C2.31522 28.125 1.83831 27.9275 1.48667 27.5758C1.13504 27.2242 0.9375 26.7473 0.9375 26.25V6.5625C0.9375 6.06522 1.13504 5.58831 1.48667 5.23667C1.83831 4.88504 2.31522 4.6875 2.8125 4.6875H3.75C4.24728 4.6875 4.72419 4.88504 5.07583 5.23667C5.42746 5.58831 5.625 6.06522 5.625 6.5625V26.25C5.625 26.7473 5.42746 27.2242 5.07583 27.5758C4.72419 27.9275 4.24728 28.125 3.75 28.125ZM14.0625 10.3125C14.0625 9.81522 13.865 9.33831 13.5133 8.98668C13.1617 8.63504 12.6848 8.4375 12.1875 8.4375H8.4375C7.94022 8.4375 7.46331 8.63504 7.11167 8.98668C6.76004 9.33831 6.5625 9.81522 6.5625 10.3125V11.9531C6.5625 12.0153 6.58719 12.0749 6.63115 12.1189C6.6751 12.1628 6.73471 12.1875 6.79688 12.1875H13.8281C13.8903 12.1875 13.9499 12.1628 13.9939 12.1189C14.0378 12.0749 14.0625 12.0153 14.0625 11.9531V10.3125ZM6.5625 26.25C6.5625 26.7473 6.76004 27.2242 7.11167 27.5758C7.46331 27.9275 7.94022 28.125 8.4375 28.125H12.1875C12.6848 28.125 13.1617 27.9275 13.5133 27.5758C13.865 27.2242 14.0625 26.7473 14.0625 26.25V24.4922C14.0625 24.4611 14.0502 24.4313 14.0282 24.4093C14.0062 24.3873 13.9764 24.375 13.9453 24.375H6.67969C6.64861 24.375 6.6188 24.3873 6.59682 24.4093C6.57485 24.4313 6.5625 24.4611 6.5625 24.4922V26.25Z" fill="#15294B"/>
<path d="M13.9453 14.0625H6.67969C6.61497 14.0625 6.5625 14.115 6.5625 14.1797V22.3828C6.5625 22.4475 6.61497 22.5 6.67969 22.5H13.9453C14.01 22.5 14.0625 22.4475 14.0625 22.3828V14.1797C14.0625 14.115 14.01 14.0625 13.9453 14.0625Z" fill="#15294B"/>
<path d="M18.75 28.125H16.875C16.3777 28.125 15.9008 27.9275 15.5492 27.5758C15.1975 27.2242 15 26.7473 15 26.25V3.75C15 3.25272 15.1975 2.77581 15.5492 2.42417C15.9008 2.07254 16.3777 1.875 16.875 1.875H18.75C19.2473 1.875 19.7242 2.07254 20.0758 2.42417C20.4275 2.77581 20.625 3.25272 20.625 3.75V26.25C20.625 26.7473 20.4275 27.2242 20.0758 27.5758C19.7242 27.9275 19.2473 28.125 18.75 28.125ZM29.0561 26.1006L27.1676 6.17871C27.0809 5.26172 26.175 4.59668 25.1443 4.6957L23.2781 4.87148C22.2475 4.96934 21.4822 5.79199 21.569 6.70898L23.4574 26.6309C23.5441 27.5479 24.45 28.2129 25.4807 28.1139L27.3469 27.9381C28.3776 27.8402 29.1428 27.0176 29.0561 26.1006Z" fill="#15294B"/>
</svg>
