<?xml version="1.0" standalone="no"?>
<!DOCTYPE svg PUBLIC "-//W3C//DTD SVG 20010904//EN"
 "http://www.w3.org/TR/2001/REC-SVG-20010904/DTD/svg10.dtd">
<svg version="1.0" xmlns="http://www.w3.org/2000/svg"
 width="207.000000pt" height="133.000000pt" viewBox="0 0 207.000000 133.000000"
 preserveAspectRatio="xMidYMid meet">
<metadata>
Created by potrace 1.16, written by Peter Selinger 2001-2019
</metadata>
<g transform="translate(0.000000,133.000000) scale(0.100000,-0.100000)"
fill="#000000" stroke="none">
<path d="M1044 1057 c-2 -7 -3 -107 -2 -222 l3 -210 33 -3 c61 -6 62 -1 62
222 0 144 -3 205 -12 214 -16 16 -77 15 -84 -1z"/>
<path d="M804 1007 c-2 -7 -3 -96 -2 -197 3 -185 3 -185 26 -188 48 -7 52 7
52 193 0 96 -3 180 -6 189 -7 19 -62 22 -70 3z"/>
<path d="M1163 1008 c-11 -14 17 -354 31 -376 8 -14 55 -16 75 -3 12 8 12 35
-2 191 -10 100 -20 186 -23 191 -8 13 -70 11 -81 -3z"/>
<path d="M890 790 l0 -70 65 0 65 0 0 70 0 70 -65 0 -65 0 0 -70z"/>
</g>
</svg>
