<svg width="19" height="19" viewBox="0 0 19 19" fill="none" xmlns="http://www.w3.org/2000/svg">
<g clip-path="url(#clip0)">
<path fill-rule="evenodd" clip-rule="evenodd" d="M17.9412 16.4241C17.9009 16.4857 17.8435 16.5366 17.7747 16.5718C17.706 16.607 17.6282 16.6254 17.5492 16.625H0.449191C0.370346 16.6252 0.292818 16.6067 0.224372 16.5713C0.155926 16.5359 0.0989638 16.4848 0.0591911 16.4232C0.0199185 16.3626 -0.000365045 16.2934 0.000515796 16.2231C0.00139664 16.1528 0.0234086 16.0841 0.0641911 16.0242L1.61019 13.7587C2.3215 12.7187 2.69891 11.5201 2.70019 10.2971V8.31205C2.70019 5.80676 4.60019 3.68781 7.19919 3.00471V1.58333C7.19919 0.710238 8.00719 0 9.00019 0C9.99219 0 10.8002 0.710238 10.8002 1.58333V3.00471C13.3992 3.68781 15.2992 5.80676 15.2992 8.31205V10.2971C15.2992 11.5158 15.6772 12.7146 16.3902 13.7596L17.9362 16.0251C17.9768 16.085 17.9987 16.1538 17.9995 16.224C18.0004 16.2943 17.9803 16.3634 17.9412 16.4241ZM9.00019 19C8.41137 19.0019 7.83373 18.8546 7.33268 18.5748C6.83163 18.295 6.4272 17.8938 6.16519 17.4167H11.8342C11.5722 17.8936 11.1679 18.2946 10.667 18.5744C10.1662 18.8542 9.58881 19.0016 9.00019 19Z" fill="#1C1C1C"/>
</g>
<defs>
<clipPath id="clip0">
<rect width="19" height="19" fill="white"/>
</clipPath>
</defs>
</svg>
