<svg width="30" height="30" viewBox="0 0 30 30" fill="none" xmlns="http://www.w3.org/2000/svg">
<circle cx="15" cy="15" r="15" fill="url(#paint0_linear)" fill-opacity="0.75"/>
<g clip-path="url(#clip0)">
<path d="M16.2594 14.788C16.2594 15.5542 15.6383 16.1753 14.8721 16.1753C14.1059 16.1753 13.4847 15.5542 13.4847 14.788C13.4847 14.0218 14.1059 13.4006 14.8721 13.4006C15.6383 13.4006 16.2594 14.0218 16.2594 14.788Z" fill="black"/>
<path d="M14.8714 17.9652C14.7557 17.9681 14.6193 17.9698 14.4823 17.9698C12.8641 17.9698 11.3035 17.7252 9.83501 17.271L9.94611 17.3004C9.1684 17.0494 8.4943 16.6792 7.90771 16.2049L7.9198 16.2141C7.4656 15.8854 7.15993 15.3765 7.10812 14.7939L7.10754 14.7865C7.10754 13.8689 8.11322 12.9708 9.8022 12.3848C11.2483 11.9087 12.9125 11.6342 14.6406 11.6342C14.7206 11.6342 14.8006 11.6347 14.8807 11.6359H14.8686C14.9353 11.6347 15.0136 11.6342 15.0925 11.6342C16.7993 11.6342 18.4428 11.9041 19.9833 12.4038L19.871 12.3721C20.6223 12.6162 21.2745 12.9685 21.8473 13.4164L21.8334 13.406C22.2796 13.7203 22.5807 14.2143 22.6313 14.7801L22.6319 14.7876C22.6319 15.7409 21.507 16.7057 19.6943 17.3055C18.334 17.7252 16.77 17.967 15.1495 17.967C15.0516 17.967 14.9543 17.9658 14.857 17.9641H14.8714V17.9652ZM14.8714 12.3008C14.8104 12.2996 14.7379 12.2996 14.6654 12.2996C13.0069 12.2996 11.4094 12.5598 9.911 13.0416L10.0209 13.0111C8.46782 13.5528 7.77128 14.2937 7.77128 14.7882C7.77128 15.3022 8.52021 16.1122 10.162 16.6729C11.4566 17.0741 12.9447 17.3055 14.4869 17.3055C14.6222 17.3055 14.7569 17.3038 14.891 17.3004L14.8714 17.3009C14.9555 17.3027 15.0545 17.3038 15.1535 17.3038C16.6986 17.3038 18.1895 17.0735 19.5947 16.6458L19.4871 16.674C21.191 16.1076 21.9739 15.2976 21.9739 14.7859C21.9152 14.4186 21.708 14.1089 21.4178 13.9138L21.4132 13.9109C20.9147 13.5229 20.3333 13.2103 19.7035 13.0048L19.6632 12.9933C18.3001 12.5523 16.7314 12.2979 15.104 12.2979C15.0223 12.2979 14.9411 12.2985 14.8599 12.2996H14.872L14.8714 12.3008Z" fill="black"/>
<path d="M11.7237 21.7022C11.7145 21.7022 11.7036 21.7028 11.6932 21.7028C11.4324 21.7028 11.1878 21.6343 10.9765 21.5145L10.984 21.5186C10.1907 21.058 9.91443 19.7386 10.2472 17.9835C10.6484 16.1828 11.2989 14.5905 12.1722 13.1479L12.1324 13.2193C12.9953 11.6909 14.0379 10.3836 15.2554 9.26339L15.2669 9.25303C15.7982 8.76718 16.4199 8.36825 17.1015 8.0856L17.1435 8.07006C17.3778 7.95723 17.653 7.8916 17.9437 7.8916C18.2321 7.8916 18.5055 7.95665 18.7496 8.07236L18.7381 8.06775C19.5642 8.54325 19.8382 10.002 19.4508 11.8705C19.0363 13.5785 18.4042 15.0827 17.573 16.4522L17.6133 16.3814C16.7774 17.8954 15.766 19.1918 14.5819 20.3068L14.5738 20.3143C14.0223 20.8191 13.3747 21.2296 12.662 21.5128L12.6194 21.5278C12.3546 21.632 12.0484 21.6959 11.7277 21.7034H11.7243L11.7237 21.7022ZM12.4174 13.3857L12.7046 13.5515C11.9097 14.864 11.2856 16.3872 10.9166 18.0071L10.8971 18.1107C10.5902 19.7277 10.8861 20.7 11.3115 20.9464C11.4215 21.0051 11.5516 21.0391 11.6898 21.0391C11.7013 21.0391 11.7134 21.0391 11.7249 21.0385H11.7231C12.2729 21.0385 13.1381 20.6902 14.1386 19.8169C15.2761 18.7422 16.2421 17.5011 17.0008 16.1304L17.0399 16.0527C17.7986 14.8116 18.4048 13.3742 18.7813 11.8464L18.8032 11.7416C19.1652 9.98124 18.8527 8.90361 18.4083 8.64571C18.2712 8.5916 18.1124 8.56052 17.9466 8.56052C17.737 8.56052 17.539 8.6106 17.364 8.69867L17.3715 8.69522C16.7279 8.9629 16.1753 9.32038 15.6981 9.75788L15.7021 9.75443C14.5272 10.8372 13.5307 12.0899 12.7455 13.4778L12.7058 13.5538L12.4174 13.3857Z" fill="black"/>
<path d="M18.0197 21.7107C17.2679 21.7107 16.3157 21.2577 15.3198 20.4005C14.0678 19.259 13.0074 17.9355 12.1745 16.4665L12.133 16.3876C11.3098 15.0354 10.6645 13.4661 10.2823 11.7967L10.2615 11.6902C10.1683 11.2821 10.1147 10.8141 10.1147 10.3334C10.1147 10.03 10.136 9.73241 10.1769 9.44055L10.1729 9.47394C10.2218 8.89944 10.5229 8.40437 10.9627 8.09294L10.9684 8.08891C11.7916 7.61111 13.1934 8.10273 14.6193 9.37148C15.7833 10.4733 16.7768 11.7392 17.5655 13.1363L17.6069 13.2157C18.429 14.538 19.0789 16.0716 19.4732 17.7047L19.4951 17.8118C19.5889 18.2199 19.643 18.6891 19.643 19.1703C19.643 19.5025 19.6177 19.8283 19.5682 20.1466L19.5728 20.111C19.5135 20.6993 19.2021 21.2053 18.7502 21.5248L18.7439 21.5288C18.5435 21.6434 18.3041 21.7107 18.049 21.7107C18.0387 21.7107 18.0283 21.7107 18.018 21.7101H18.0197V21.7107ZM12.7075 16.056C13.5468 17.536 14.5594 18.8025 15.7418 19.8876L15.7533 19.898C17.0002 20.9704 17.9892 21.2024 18.4175 20.9537C18.8624 20.697 19.1883 19.6435 18.8515 17.9413C18.4474 16.2776 17.8228 14.8132 16.9985 13.4851L17.0359 13.5496C16.242 12.1358 15.2934 10.9234 14.1875 9.8746L14.1806 9.86827C12.837 8.67435 11.7485 8.4061 11.3035 8.66284C11.0312 8.88447 10.8522 9.21087 10.8286 9.57986V9.58389C10.7969 9.8084 10.7791 10.0674 10.7791 10.3311C10.7791 10.7669 10.8286 11.1906 10.9218 11.5981L10.9143 11.5601C11.3018 13.2595 11.92 14.7602 12.7461 16.1216L12.7081 16.0543L12.7075 16.056Z" fill="black"/>
</g>
<defs>
<linearGradient id="paint0_linear" x1="-2.27735e-07" y1="15.9868" x2="30" y2="15.9868" gradientUnits="userSpaceOnUse">
<stop stop-color="#61DAFB"/>
<stop offset="1" stop-color="#618CFB"/>
</linearGradient>
<clipPath id="clip0">
<rect width="15.5428" height="13.8158" fill="white" transform="translate(7.10522 7.89478)"/>
</clipPath>
</defs>
</svg>
