<svg width="90" height="90" viewBox="0 0 90 90" fill="none" xmlns="http://www.w3.org/2000/svg">
<circle cx="45" cy="45" r="45" fill="url(#paint0_linear)" fill-opacity="0.75"/>
<g clip-path="url(#clip0)">
<path d="M45.0472 32.7623C43.5986 38.7115 43.6913 38.3935 42.3774 43.8349C42.3487 44.3362 41.9335 44.7315 41.4278 44.7315C41.3726 44.7315 41.3174 44.727 41.2644 44.7182H41.271H39.7804C39.7362 44.727 39.6832 44.7315 39.6324 44.7315C39.1841 44.7315 38.8153 44.398 38.7579 43.9674V43.963C37.4837 39.8864 35.7767 34.2242 34.6283 30.4369C34.2043 29.039 34.4826 29.0722 35.5912 29.1009C35.9754 29.1119 36.3464 29.1009 36.7284 29.1009C36.7549 29.0987 36.7859 29.0965 36.819 29.0965C37.2518 29.0965 37.6096 29.4167 37.6692 29.8318V29.8363C38.0424 31.1723 38.2897 32.197 40.4208 40.6129C40.4605 40.7785 40.5135 40.9353 40.5665 41.0877H40.6792C40.7299 40.8801 40.7918 40.6858 40.8448 40.476C41.6516 37.0708 42.4554 33.6626 43.2563 30.2514C43.5058 29.1914 43.9497 29.092 45.0229 29.092H45.8091C46.5158 29.1031 46.741 29.2466 46.9177 29.9511C47.5382 32.3736 49.3513 40.4848 49.6803 41.377C50.2103 39.4823 49.4948 42.1941 52.6306 30.0968C52.8471 29.2599 53.0546 29.0943 53.9049 29.0943H55.21C55.7687 29.1053 55.9343 29.2798 55.7996 29.8296C55.5501 30.8145 55.4993 30.8543 51.5265 43.5831C51.2041 44.6078 51.0914 44.7005 50.016 44.7005H48.9184C48.1632 44.7005 47.9667 44.5658 47.7812 43.8305C47.3351 42.1543 45.3697 33.9261 45.0472 32.7667V32.7623ZM30.9934 44.2699C31.1436 44.5769 31.4527 44.7845 31.8105 44.7845C32.0622 44.7845 32.2875 44.6829 32.4531 44.5173L33.1046 44.0822C33.8112 43.6163 33.8598 43.4308 33.4778 42.6843C33.067 41.9026 32.8241 40.9773 32.8241 39.9946C32.8241 39.9615 32.8241 39.9283 32.8241 39.8952V39.8996C32.8241 39.5772 32.8859 34.1359 32.7314 32.9875C32.5944 31.0663 31.2628 29.4895 29.4829 28.9883L29.452 28.9816C28.6724 28.7652 27.7781 28.6415 26.8528 28.6415C26.5745 28.6415 26.2963 28.6526 26.0247 28.6747L26.06 28.6725C24.4347 28.7365 22.9242 29.1671 21.5881 29.8804L21.6433 29.8539C21.4424 29.9621 21.2922 30.141 21.2215 30.3552L21.2193 30.3618C21.1619 30.6224 21.1288 30.9228 21.1288 31.2297C21.1288 31.3644 21.1354 31.4991 21.1464 31.6316L21.1442 31.614C21.2061 32.2257 21.4137 32.3383 21.9922 32.144C22.5222 31.9673 23.0279 31.742 23.5557 31.5853C24.3176 31.3026 25.1965 31.1392 26.1152 31.1392C26.8285 31.1392 27.5175 31.2385 28.1712 31.4218L28.1182 31.4086C28.8182 31.6184 29.3637 32.1462 29.5933 32.8197L29.5977 32.8352C29.7678 33.4049 29.8672 34.0586 29.8672 34.7365C29.8672 34.9441 29.8583 35.1517 29.8407 35.3549L29.8429 35.3284C29.8429 35.8981 29.8318 35.8981 29.2731 35.7943C28.3235 35.558 27.2348 35.4211 26.113 35.4211C25.7 35.4211 25.2893 35.4388 24.8852 35.4763L24.9382 35.4719C23.3349 35.589 21.9348 36.3685 20.9919 37.5323L20.983 37.5433C20.4089 38.3383 20.0644 39.3343 20.0644 40.4098C20.0644 40.8448 20.1196 41.2644 20.2256 41.6663L20.2189 41.631C20.4486 43.137 21.5174 44.3428 22.9242 44.7712L22.9507 44.7778C23.569 44.9987 24.2823 45.1268 25.0265 45.1268C26.4994 45.1268 27.8576 44.6255 28.9352 43.7841L28.922 43.7951C29.3151 43.5058 29.6684 43.1547 30.0703 42.8102C30.3927 43.327 30.671 43.8128 30.9912 44.2589L30.9934 44.2699ZM29.4034 37.8945H29.4144C29.6596 37.8945 29.8583 38.0932 29.8583 38.3383C29.8583 38.3693 29.8561 38.398 29.8495 38.4289V38.4267C29.8274 38.8198 29.8605 39.2128 29.8186 39.6059C29.7082 40.7609 28.986 41.7237 27.9857 42.1764L27.9658 42.1853C27.3165 42.5253 26.5502 42.7263 25.7354 42.7263C25.5697 42.7263 25.4063 42.7175 25.2451 42.702L25.265 42.7042C24.0968 42.6358 23.1759 41.6729 23.1759 40.4937C23.1759 40.3126 23.198 40.1359 23.2399 39.9659L23.2377 39.9813C23.2952 38.7712 24.2536 37.8017 25.4549 37.7266H25.4615C25.9253 37.6515 26.4597 37.6096 27.0029 37.6096C27.8598 37.6096 28.6945 37.7156 29.4895 37.9143L29.4189 37.8989L29.4034 37.8945ZM65.5008 44.6321C67.3227 44.0204 68.6101 42.3288 68.6101 40.3369C68.6101 40.0255 68.5792 39.7208 68.5196 39.427L68.524 39.4558C68.2877 38.0137 67.2785 36.8565 65.9425 36.4105L65.916 36.4016C63.902 35.77 62.2524 35.1318 60.6535 34.4031L60.9384 34.5201C60.4769 34.2883 60.1633 33.8245 60.1522 33.2857V33.2835C60.139 33.2018 60.1324 33.109 60.1324 33.014C60.1324 32.0888 60.8346 31.3291 61.7356 31.2363H61.7422C62.2082 31.1259 62.7426 31.0641 63.2925 31.0641C63.7717 31.0641 64.2421 31.1127 64.6948 31.2032L64.6506 31.1966C65.4059 31.3423 66.1302 31.6316 66.8656 31.848C67.1549 31.9408 67.4773 32.0645 67.6738 31.6824C67.7754 31.4682 67.835 31.2165 67.835 30.9537C67.835 30.2956 67.4684 29.7236 66.9274 29.4321L66.9186 29.4277C65.8276 28.9065 64.5468 28.604 63.1953 28.604C61.9896 28.604 60.8412 28.8469 59.7945 29.2842L59.8519 29.2621C58.2509 29.8981 57.1401 31.4351 57.1401 33.2305C57.1401 34.9508 58.1603 36.4348 59.6289 37.1061L59.6554 37.1171C60.4526 37.5014 61.3204 37.7288 62.1596 38.038C62.9988 38.3472 63.8357 38.6387 64.655 38.9788C65.2204 39.2923 65.598 39.8864 65.598 40.5688C65.598 41.2003 65.2756 41.7546 64.7853 42.0793L64.7787 42.0837C61.9123 43.6737 58.0654 41.8341 57.6171 41.6906C57.277 41.578 57.0694 41.7127 56.9656 42.0748C56.8817 42.2714 56.8331 42.501 56.8331 42.7418C56.8331 43.5566 57.3962 44.2412 58.1559 44.4223L58.1669 44.4245C59.3396 44.8949 60.6977 45.1665 62.1199 45.1665C63.3256 45.1665 64.4872 44.97 65.5715 44.6078L65.4942 44.6299L65.5008 44.6321ZM48.6424 61.4706C54.1588 60.8788 59.1673 59.1475 63.5774 56.5151L63.4095 56.6079C64.2376 56.122 65.0128 55.5479 65.7989 54.9825C66.5542 54.4525 66.1302 53.079 64.6285 53.7194C59.4522 55.9918 53.4411 57.4448 47.1275 57.7408L47.0149 57.7452C46.3524 57.7783 45.5772 57.796 44.7977 57.796C42.2537 57.796 39.7539 57.6016 37.3137 57.2262L37.5853 57.2615C30.7019 56.27 24.5031 54.0418 18.9712 50.7978L19.2119 50.928C19.0176 50.7978 18.7946 50.6918 18.5561 50.6211L18.5384 50.6167C18.0305 50.504 17.7412 51.1025 18.2889 51.6193C25.0662 57.8865 34.1646 61.729 44.1617 61.729H44.1926H44.1904C45.681 61.6451 47.1717 61.6362 48.6402 61.4706H48.6424ZM66.722 51.9306C68.2546 52.0145 68.7294 52.5423 68.3474 54.0197C67.9543 55.5523 67.3845 57.0429 66.9097 58.5534C66.817 58.8538 66.4747 59.2049 66.8258 59.4655C67.2101 59.7349 67.4994 59.3617 67.7577 59.1254C68.7625 58.1692 69.5531 57.001 70.0632 55.6914L70.0853 55.6274C70.6551 54.3819 70.9863 52.9244 70.9863 51.3896C70.9863 51.3543 70.9863 51.3211 70.9863 51.2858V51.2902C70.9642 50.6498 70.8008 50.3782 70.1781 50.2037C69.6834 50.0513 69.1026 49.9343 68.5064 49.8769L68.471 49.8747C68.0669 49.8239 67.6009 49.7952 67.1261 49.7952C65.28 49.7952 63.5354 50.2302 61.9874 51.0009L62.0536 50.97C61.7113 51.1555 61.4154 51.3587 61.1438 51.5883L61.1526 51.5817C61.04 51.6745 60.8214 52.1294 61.4021 52.2133C61.4551 52.2177 61.5192 52.2199 61.581 52.2199C61.7334 52.2199 61.8836 52.2067 62.0271 52.1802L62.0117 52.1824C63.1732 52.0168 64.5159 51.9218 65.8784 51.9218C66.1744 51.9218 66.4681 51.9262 66.7618 51.935H66.7198L66.722 51.9306Z" fill="black"/>
</g>
<defs>
<linearGradient id="paint0_linear" x1="-6.83206e-07" y1="47.9605" x2="90" y2="47.9605" gradientUnits="userSpaceOnUse">
<stop stop-color="#FFC700"/>
<stop offset="1" stop-color="#FF9900"/>
</linearGradient>
<clipPath id="clip0">
<rect width="53" height="53" fill="white" transform="translate(18 18)"/>
</clipPath>
</defs>
</svg>
