<svg width="90" height="90" viewBox="0 0 90 90" fill="none" xmlns="http://www.w3.org/2000/svg">
<circle cx="45" cy="45" r="45" fill="url(#paint0_linear)" fill-opacity="0.75"/>
<g clip-path="url(#clip0)">
<path d="M48.6814 44.4559C48.6814 46.7297 46.8031 48.573 44.4862 48.573C42.1693 48.573 40.291 46.7297 40.291 44.4559C40.291 42.1822 42.1693 40.3389 44.4862 40.3389C46.8031 40.3389 48.6814 42.1822 48.6814 44.4559Z" fill="black"/>
<path d="M44.4842 53.8854C44.1343 53.894 43.7218 53.8991 43.3075 53.8991C38.4142 53.8991 33.6951 53.173 29.2545 51.8252L29.5904 51.9123C27.2387 51.1675 25.2003 50.069 23.4265 48.6613L23.463 48.6887C22.0896 47.7132 21.1652 46.203 21.0086 44.4742L21.0068 44.452C21.0068 41.7289 24.0479 39.0639 29.1552 37.3248C33.528 35.912 38.5605 35.0972 43.7862 35.0972C44.0281 35.0972 44.2701 35.0989 44.5121 35.1023H44.4755C44.6774 35.0989 44.9142 35.0972 45.1527 35.0972C50.3139 35.0972 55.2838 35.8984 59.942 37.3812L59.6025 37.2873C61.8742 38.0116 63.8465 39.0571 65.5785 40.3862L65.5367 40.3554C66.8858 41.2882 67.7962 42.7539 67.9494 44.4332L67.9511 44.4554C67.9511 47.2844 64.5497 50.1476 59.0681 51.9277C54.9548 53.173 50.2252 53.8905 45.325 53.8905C45.0291 53.8905 44.7349 53.8871 44.4407 53.882H44.4842V53.8854ZM44.4842 37.0754C44.2997 37.072 44.0804 37.072 43.861 37.072C38.8459 37.072 34.0154 37.8442 29.4842 39.274L29.8167 39.1835C25.1202 40.791 23.0139 42.9897 23.0139 44.4571C23.0139 45.9827 25.2786 48.3863 30.2432 50.0502C34.1581 51.2409 38.6579 51.9277 43.3214 51.9277C43.7305 51.9277 44.1378 51.9225 44.5434 51.9123L44.4842 51.914C44.7384 51.9191 45.0378 51.9225 45.3372 51.9225C50.0093 51.9225 54.5178 51.2392 58.767 49.9699L58.4415 50.0536C63.5941 48.3726 65.9615 45.969 65.9615 44.4503C65.7839 43.3604 65.1572 42.4413 64.2799 41.8622L64.266 41.8536C62.7585 40.7022 61.0004 39.7746 59.096 39.1647L58.9741 39.1305C54.8521 37.822 50.1085 37.0669 45.1875 37.0669C44.9403 37.0669 44.6948 37.0686 44.4494 37.072H44.4859L44.4842 37.0754Z" fill="black"/>
<path d="M34.9656 64.9758C34.9378 64.9758 34.9047 64.9775 34.8734 64.9775C34.0848 64.9775 33.345 64.7743 32.7062 64.4189L32.7288 64.4309C30.33 63.0642 29.4945 59.1487 30.5006 53.94C31.7139 48.5963 33.681 43.8711 36.3217 39.59L36.2016 39.8018C38.8109 35.2662 41.9634 31.3866 45.6451 28.0622L45.6799 28.0314C47.2866 26.5896 49.1666 25.4057 51.2276 24.5669L51.3547 24.5208C52.0632 24.186 52.8953 23.9912 53.7743 23.9912C54.6464 23.9912 55.4733 24.1843 56.2114 24.5276L56.1766 24.514C58.6745 25.925 59.5031 30.254 58.3316 35.7992C57.0783 40.8678 55.1669 45.3317 52.6533 49.3958L52.7752 49.1857C50.2476 53.6786 47.1891 57.5258 43.6084 60.8348L43.584 60.857C41.9164 62.3553 39.9581 63.5733 37.803 64.4138L37.6742 64.4582C36.8735 64.7674 35.9474 64.957 34.9778 64.9793H34.9674L34.9656 64.9758ZM37.0632 40.2955L37.9319 40.7875C35.5279 44.6825 33.6409 49.2028 32.5251 54.01L32.4659 54.3175C31.5381 59.1162 32.4329 62.0016 33.7193 62.7328C34.0517 62.907 34.4452 63.0078 34.8629 63.0078C34.8977 63.0078 34.9343 63.0078 34.9691 63.0061H34.9639C36.6263 63.0061 39.2426 61.9726 42.268 59.381C45.7077 56.1916 48.6287 52.5084 50.923 48.4409L51.0414 48.2103C53.3357 44.5271 55.1687 40.2614 56.3071 35.7275L56.3733 35.4165C57.4682 30.1925 56.523 26.9945 55.1791 26.2291C54.7648 26.0685 54.2844 25.9763 53.783 25.9763C53.1494 25.9763 52.5506 26.1249 52.0214 26.3863L52.044 26.376C50.0979 27.1704 48.4268 28.2313 46.9837 29.5296L46.9959 29.5194C43.443 32.7328 40.4298 36.4501 38.0554 40.5689L37.9353 40.7944L37.0632 40.2955Z" fill="black"/>
<path d="M54.0049 65.0003C51.7315 65.0003 48.8523 63.6558 45.8409 61.1121C42.0547 57.7245 38.8483 53.797 36.3294 49.4374L36.2041 49.2033C33.7149 45.1904 31.7635 40.5335 30.6076 35.5794L30.545 35.2633C30.263 34.0521 30.1011 32.6632 30.1011 31.2368C30.1011 30.3365 30.1655 29.4533 30.2891 28.5871L30.2769 28.6862C30.4249 26.9813 31.3353 25.5121 32.6652 24.5879L32.6826 24.576C35.1719 23.1581 39.4106 24.617 43.7224 28.3821C47.2422 31.6519 50.2467 35.4085 52.6315 39.5546L52.7568 39.7904C55.2426 43.7144 57.2079 48.2654 58.4003 53.112L58.4664 53.4297C58.7502 54.6409 58.9138 56.0332 58.9138 57.4614C58.9138 58.4471 58.8372 59.414 58.6875 60.3587L58.7014 60.2528C58.5222 61.9987 57.5804 63.5004 56.2139 64.4485L56.1948 64.4604C55.589 64.8004 54.8649 65.0003 54.0937 65.0003C54.0624 65.0003 54.031 65.0003 53.9997 64.9986H54.0049V65.0003ZM37.9414 48.2193C40.4794 52.6114 43.5413 56.3698 47.1168 59.59L47.1516 59.6207C50.9221 62.8034 53.9127 63.4918 55.2078 62.7538C56.5534 61.9919 57.5386 58.8657 56.5203 53.8141C55.2983 48.877 53.4096 44.531 50.9169 40.5899L51.03 40.7812C48.6295 36.5856 45.7608 32.9878 42.4168 29.8752L42.3959 29.8564C38.333 26.3134 35.0413 25.5173 33.6957 26.2792C32.8723 26.9369 32.331 27.9055 32.2596 29.0006V29.0125C32.1639 29.6788 32.1099 30.4475 32.1099 31.2299C32.1099 32.5231 32.2596 33.7805 32.5416 34.99L32.519 34.8772C33.6905 39.9202 35.56 44.3739 38.058 48.4141L37.9431 48.2142L37.9414 48.2193Z" fill="black"/>
</g>
<defs>
<linearGradient id="paint0_linear" x1="-6.83206e-07" y1="47.9605" x2="90" y2="47.9605" gradientUnits="userSpaceOnUse">
<stop stop-color="#61DAFB"/>
<stop offset="1" stop-color="#618CFB"/>
</linearGradient>
<clipPath id="clip0">
<rect width="47" height="41" fill="white" transform="translate(21 24)"/>
</clipPath>
</defs>
</svg>
