<svg width="90" height="90" viewBox="0 0 90 90" fill="none" xmlns="http://www.w3.org/2000/svg">
<circle cx="45" cy="45" r="45" fill="url(#paint0_linear)" fill-opacity="0.75"/>
<path d="M31.805 55.315C36.145 55.315 39.12 53.005 39.12 47.93V31.2H34.22V47.86C34.22 50.31 33.205 50.94 31.595 50.94C29.915 50.94 29.215 49.785 28.445 48.42L24.455 50.835C25.61 53.285 27.885 55.315 31.805 55.315ZM50.7083 55.315C55.3633 55.315 58.8283 52.9 58.8283 48.49C58.8283 44.395 56.4833 42.575 52.3183 40.79L51.0933 40.265C48.9933 39.355 48.0833 38.76 48.0833 37.29C48.0833 36.1 48.9933 35.19 50.4283 35.19C51.8283 35.19 52.7383 35.785 53.5783 37.29L57.3933 34.84C55.7833 32.005 53.5433 30.92 50.4283 30.92C46.0533 30.92 43.2533 33.72 43.2533 37.395C43.2533 41.385 45.5983 43.275 49.1333 44.78L50.3583 45.305C52.5983 46.285 53.9283 46.88 53.9283 48.56C53.9283 49.96 52.6333 50.975 50.6033 50.975C48.1883 50.975 46.8233 49.715 45.7733 48L41.7833 50.31C43.2183 53.145 46.1583 55.315 50.7083 55.315Z" fill="black"/>
<defs>
<linearGradient id="paint0_linear" x1="-6.83206e-07" y1="47.9605" x2="90" y2="47.9605" gradientUnits="userSpaceOnUse">
<stop stop-color="#F7DF1E"/>
<stop offset="1" stop-color="#FCB440"/>
</linearGradient>
</defs>
</svg>
