<svg width="90" height="90" viewBox="0 0 90 90" fill="none" xmlns="http://www.w3.org/2000/svg">
<circle cx="45" cy="45" r="45" fill="url(#paint0_linear)" fill-opacity="0.75"/>
<g clip-path="url(#clip0)">
<rect x="33" y="30.7832" width="25.2" height="29.8958" fill="white"/>
<path d="M60.1989 62.5976L63.4783 26H27L27.0429 26.4749L30.2743 62.6028L30.3017 62.9034L45.1011 67H45.3343L60.168 62.9L60.1954 62.5993L60.1989 62.5976ZM45.2709 33.9933H55.8703L55.5514 37.6833L45.0943 42.3163L45.2691 43.15H55.0817L53.952 56.0496L45.2331 58.4583L36.5177 56.053L35.9691 49.8757H39.5571L39.8451 53.007L39.8726 53.3111L45.1611 54.712H45.3891L50.6194 53.2633L50.6451 52.9609L51.1389 47.1765L51.1783 46.705H35.6691L35.3434 42.9928L46.1589 38.3786L45.9874 37.5415H34.8789L34.5617 33.9882H45.2589L45.2709 33.9933Z" fill="black"/>
</g>
<defs>
<linearGradient id="paint0_linear" x1="-6.83206e-07" y1="47.9605" x2="90" y2="47.9605" gradientUnits="userSpaceOnUse">
<stop stop-color="#29B5F1"/>
<stop offset="1" stop-color="#264DE4"/>
</linearGradient>
<clipPath id="clip0">
<rect width="36" height="41" fill="white" transform="translate(27 26)"/>
</clipPath>
</defs>
</svg>
